<?xml version="1.0" encoding="UTF-8" standalone="no"?>
<svg
   xmlns:dc="http://purl.org/dc/elements/1.1/"
   xmlns:cc="http://creativecommons.org/ns#"
   xmlns:rdf="http://www.w3.org/1999/02/22-rdf-syntax-ns#"
   xmlns:svg="http://www.w3.org/2000/svg"
   xmlns="http://www.w3.org/2000/svg"
   xmlns:xlink="http://www.w3.org/1999/xlink"
   xmlns:sodipodi="http://sodipodi.sourceforge.net/DTD/sodipodi-0.dtd"
   xmlns:inkscape="http://www.inkscape.org/namespaces/inkscape"
   version="1.1"
   id="Layer_1"
   x="0px"
   y="0px"
   width="8503.94px"
   height="5669.29px"
   viewBox="0 0 8503.94 5669.29"
   enable-background="new 0 0 8503.94 5669.29"
   xml:space="preserve"
   sodipodi:docname="appiconfg.svg"
   inkscape:version="1.0 (4035a4fb49, 2020-05-01)"><metadata
   id="metadata187"><rdf:RDF><cc:Work
       rdf:about=""><dc:format>image/svg+xml</dc:format><dc:type
         rdf:resource="http://purl.org/dc/dcmitype/StillImage" /><dc:title /></cc:Work></rdf:RDF></metadata><defs
   id="defs185"><rect
     x="637.979"
     y="1847.2825"
     width="704.63353"
     height="828.4205"
     id="rect1901" /><pattern
     patternTransform="translate(1124.4315,754.10981)"
     id="pattern2791"
     xlink:href="#pattern2697"
     inkscape:collect="always" /><pattern
     id="pattern2697"
     patternTransform="translate(1178.2966,558.84924)"
     height="4127.7665"
     width="5898.2163"
     patternUnits="userSpaceOnUse"><rect
       style="fill:none;stroke-width:3.7;stroke-miterlimit:1.4"
       id="rect1461"
       width="5898.2163"
       height="1710.2134"
       x="0"
       y="0" /><g
       id="g180"
       transform="translate(-1299.4929,-572.31549)">
	<g
   id="g90">
		<g
   id="g36">
			<path
   id="path4"
   d="m 2213.153,1670.392 h -82.721 v 147.369 h -41.708 v -147.369 h -82.374 v -31.976 h 206.803 z"
   fill="#da2333" />
			<path
   id="path6"
   d="m 2471.4,1817.761 h -46.921 l -21.55,-39.275 h -113.654 l -20.854,39.275 h -41.708 l 101.49,-179.345 h 40.318 z m -85.848,-71.598 -38.58,-72.989 -39.97,72.989 z"
   fill="#da2333" />
			<path
   id="path8"
   d="m 2745.283,1782.657 c 0,23.407 -17.612,35.104 -52.831,35.104 H 2549.95 v -179.345 h 153.625 c 26.876,0 40.317,11.589 40.317,34.757 v 21.896 c 0,17.612 -10.313,27.692 -30.934,30.238 21.55,2.781 32.324,14.251 32.324,34.409 v 22.941 z m -39.97,-85.154 v -17.03 c 0,-8.571 -6.375,-12.861 -19.116,-12.861 h -95.233 v 42.751 h 95.233 c 12.74,0 19.116,-4.285 19.116,-12.86 z m 1.042,71.946 v -13.554 c 0,-6.717 -1.564,-11.062 -4.692,-13.034 -3.128,-1.966 -8.287,-2.954 -15.467,-2.954 h -95.233 v 45.531 h 95.233 c 7.18,0 12.339,-0.983 15.467,-2.955 3.128,-1.966 4.692,-6.31 4.692,-13.034 z"
   fill="#da2333" />
			<path
   id="path10"
   d="M 3022.987,1817.761 H 2846.77 v -179.345 h 41.708 v 145.631 h 134.509 z"
   fill="#da2333" />
			<path
   id="path12"
   d="m 3290.266,1817.761 h -185.253 v -179.345 h 183.516 v 30.586 H 3146.72 v 39.97 h 82.721 v 30.586 h -82.721 v 44.488 h 143.545 v 33.715 z"
   fill="#da2333" />
			<path
   id="path14"
   d="m 3582.914,1775.358 c 0,16.684 -3.247,27.925 -9.731,33.714 -6.49,5.794 -18.193,8.689 -35.104,8.689 h -110.874 c -18.307,0 -30.358,-3.242 -36.147,-9.731 -5.794,-6.484 -8.689,-18.997 -8.689,-37.537 l 36.843,-7.646 v 21.201 h 126.862 v -41.013 h -111.917 c -16.917,0 -28.56,-2.895 -34.931,-8.689 -6.375,-5.789 -9.558,-17.031 -9.558,-33.714 v -19.812 c 0,-16.684 3.183,-27.92 9.558,-33.714 6.371,-5.789 18.014,-8.689 34.931,-8.689 h 101.838 c 17.145,0 28.848,2.954 35.104,8.863 6.256,5.908 9.384,17.324 9.384,34.234 l -36.843,8.689 v -20.505 h -117.478 v 38.58 h 111.917 c 16.911,0 28.614,2.9 35.104,8.689 6.484,5.794 9.731,17.03 9.731,33.714 z"
   fill="#da2333" />
			<path
   id="path16"
   d="m 3732.018,1817.761 h -41.708 v -179.345 h 41.708 z"
   fill="#da2333" />
			<path
   id="path18"
   d="m 4062.55,1727.047 c 0,34.757 -13.208,60.362 -39.623,76.812 -15.065,9.271 -39.623,13.902 -73.685,13.902 h -104.618 v -179.345 h 115.392 c 31.048,0 55.378,6.951 72.989,20.854 19.694,15.294 29.545,37.886 29.545,67.777 z m -43.098,-0.696 c 0,-37.304 -19.698,-55.959 -59.087,-55.959 h -74.032 v 113.655 h 53.873 c 25.486,0 44.022,-3.242 55.611,-9.732 15.755,-8.803 23.635,-24.791 23.635,-47.964 z"
   fill="#da2333" />
			<path
   id="path20"
   d="m 4345.117,1817.761 h -185.252 v -179.345 h 183.514 v 30.586 h -141.806 v 39.97 h 82.72 v 30.586 h -82.72 v 44.488 h 143.544 z"
   fill="#da2333" />
			<path
   id="path22"
   d="m 4764.628,1670.392 h -82.723 v 147.369 h -41.708 v -147.369 h -82.374 v -31.976 h 206.805 z"
   fill="#da2333" />
			<path
   id="path24"
   d="m 5049.285,1817.761 h -59.783 l -72.292,-67.776 h -39.623 v 67.776 h -41.013 v -179.345 h 153.624 c 26.876,0 40.315,11.589 40.315,34.757 v 42.055 c 0,17.378 -6.948,28.153 -20.852,32.325 -5.333,1.624 -19.697,2.432 -43.099,2.432 z m -59.087,-112.611 v -21.55 c 0,-6.023 -1.737,-9.96 -5.216,-11.816 -2.55,-1.619 -7.069,-2.434 -13.552,-2.434 h -93.844 v 50.05 h 93.844 c 6.482,0 11.002,-0.809 13.552,-2.433 3.479,-1.852 5.216,-5.789 5.216,-11.817 z"
   fill="#da2333" />
			<path
   id="path26"
   d="m 5333.596,1817.761 h -46.923 l -21.549,-39.275 h -113.655 l -20.854,39.275 h -41.708 l 101.49,-179.345 h 40.317 z m -85.851,-71.598 -38.579,-72.989 -39.97,72.989 z"
   fill="#da2333" />
			<path
   id="path28"
   d="m 5597.747,1775.358 c 0,16.684 -3.189,27.925 -9.56,33.714 -6.375,5.794 -18.02,8.689 -34.931,8.689 h -107.052 c -16.916,0 -28.56,-2.895 -34.931,-8.689 -6.376,-5.79 -9.558,-17.031 -9.558,-33.714 v -94.538 c 0,-16.684 3.182,-27.92 9.558,-33.714 6.371,-5.789 18.015,-8.689 34.931,-8.689 h 107.052 c 21.315,0 34.523,4.985 39.623,14.945 3.242,5.795 4.867,20.626 4.867,44.488 l -41.709,6.604 v -34.062 h -112.611 v 113.655 h 112.611 v -38.58 l 41.709,8.689 v 21.202 z"
   fill="#da2333" />
			<path
   id="path30"
   d="m 5921.33,1817.761 h -67.08 l -107.4,-78.897 v 78.897 h -42.054 v -179.345 h 42.054 v 74.727 l 99.407,-74.727 h 60.477 l -118.871,84.458 z"
   fill="#da2333" />
			<path
   id="path32"
   d="m 6186.867,1817.761 h -185.252 v -179.345 h 183.516 v 30.586 h -141.809 v 39.97 h 82.722 v 30.586 h -82.722 v 44.488 h 143.545 z"
   fill="#da2333" />
			<path
   id="path34"
   d="m 6497.592,1817.761 h -59.782 l -72.293,-67.776 h -39.623 v 67.776 h -41.014 v -179.345 h 153.624 c 26.877,0 40.316,11.589 40.316,34.757 v 42.055 c 0,17.378 -6.948,28.153 -20.852,32.325 -5.334,1.624 -19.697,2.432 -43.1,2.432 z m -59.088,-112.611 v -21.55 c 0,-6.023 -1.736,-9.96 -5.214,-11.816 -2.552,-1.619 -7.071,-2.434 -13.554,-2.434 h -93.843 v 50.05 h 93.843 c 6.482,0 11.002,-0.809 13.554,-2.433 3.478,-1.852 5.214,-5.789 5.214,-11.817 z"
   fill="#da2333" />
		</g>
		<g
   id="g88">
			<g
   id="g40">
				<path
   id="path38"
   d="m 2869.18,969.993 c 40.93,-2.964 82.5,2.458 121.106,16.474 63.764,22.844 118.845,68.692 153.155,127.061 18.944,31.986 31.617,67.646 37.184,104.387 5.288,35.247 4.225,71.458 -3.351,106.28 -11.403,52.883 -38.029,102.308 -75.69,141.112 -36.48,37.867 -83.319,65.684 -134.113,79.329 -65.323,17.737 -136.816,11.953 -198.265,-16.537 -59.045,-27.014 -108.469,-74.286 -138.23,-131.979 -17.482,-33.778 -28.301,-71.015 -31.472,-108.919 -4.404,-50.388 4.459,-101.92 25.815,-147.796 28.734,-62.512 80.266,-114.144 142.707,-143.031 31.75,-14.834 66.222,-23.725 101.154,-26.381 z m -143.391,85.049 c 10.629,13.439 21.439,26.725 32.067,40.164 24.888,-19.907 54.234,-34.301 85.337,-41.318 -3.611,-16.772 -7.665,-33.463 -11.376,-50.216 -38.625,8.845 -75.087,26.652 -106.028,51.37 z m 212.659,-1.307 c 31.139,6.909 60.529,21.231 85.499,41.039 10.647,-13.403 21.248,-26.842 32.004,-40.174 -31.004,-24.689 -67.575,-42.407 -106.271,-51.072 -3.657,16.754 -7.602,33.445 -11.232,50.207 z m -67.556,23.465 c -21.682,2.389 -42.949,8.593 -62.45,18.376 -36.355,18.061 -66.476,48.371 -84.249,84.878 -18.221,36.841 -23.455,79.862 -14.853,120.026 6.818,32.472 22.662,62.963 45.19,87.301 22.682,24.716 52.182,43.138 84.392,52.549 37.031,10.926 77.475,9.873 113.873,-3.027 33.771,-11.854 63.881,-33.767 85.672,-62.151 21.681,-28.059 35.11,-62.458 37.903,-97.831 3.27,-37.804 -5.558,-76.528 -24.853,-109.208 -18.177,-31.021 -45.506,-56.594 -77.717,-72.583 -31.587,-15.844 -67.798,-22.213 -102.908,-18.33 z m 212.531,91.796 c 14.063,28.644 21.259,60.54 21.367,92.427 17.132,-0.01 34.265,0 51.406,-0.01 -0.082,-39.624 -9.233,-79.13 -26.428,-114.828 -15.511,7.351 -30.896,14.926 -46.345,22.411 z m -457.276,93.282 c 17.104,-0.125 34.219,-0.036 51.334,-0.053 0.018,-31.968 7.26,-63.837 21.015,-92.679 -15.386,-7.467 -30.843,-14.773 -46.2,-22.285 -17.232,35.733 -26.185,75.357 -26.149,115.017 z m 26.392,114.91 c 17.348,35.598 42.642,67.313 73.646,91.956 10.593,-13.446 21.338,-26.777 31.986,-40.181 -24.97,-19.906 -45.434,-45.415 -59.396,-74.141 -15.403,7.467 -30.815,14.916 -46.236,22.366 z m 371.831,51.594 c 10.594,13.466 21.321,26.835 32.076,40.192 30.887,-24.725 56.082,-56.388 73.475,-91.904 -15.277,-7.692 -30.852,-14.79 -46.137,-22.456 -14.159,28.618 -34.381,54.289 -59.414,74.168 z m -192.022,91.5 c 38.588,9.041 79.177,8.71 117.827,0.135 -3.765,-16.763 -7.512,-33.525 -11.484,-50.243 -31.084,7.188 -63.782,7.213 -94.867,0.045 -3.965,16.653 -7.513,33.406 -11.476,50.063 z"
   fill="#da2333" />
			</g>
			<path
   id="path42"
   d="m 2852.083,1092.919 c 12.628,-3.108 25.672,-4.359 38.66,-4.549 0.054,7.891 0.09,15.791 0.063,23.681 -11.206,-0.045 -22.42,1.279 -33.346,3.801 -1.872,-7.63 -3.432,-15.331 -5.377,-22.933 z"
   fill="#2a3e51" />
			<path
   id="path44"
   d="m 2929.395,1092.603 c 12.656,2.891 24.96,7.225 36.724,12.719 -3.288,7.161 -6.882,14.169 -10.152,21.339 -10.188,-4.812 -20.888,-8.485 -31.859,-11.071 1.873,-7.629 3.387,-15.358 5.287,-22.987 z"
   fill="#2a3e51" />
			<path
   id="path46"
   d="m 2782.644,1126.48 c 10.171,-8.097 21.223,-15.069 32.896,-20.816 3.387,7.116 6.837,14.195 10.332,21.267 -10.107,4.945 -19.673,10.98 -28.455,18.006 -4.909,-6.17 -9.864,-12.295 -14.773,-18.457 z"
   fill="#2a3e51" />
			<path
   id="path48"
   d="m 2998.978,1125.958 c 10.197,8.062 19.403,17.33 27.618,27.4 -6.107,5 -12.323,9.855 -18.411,14.863 -7.045,-8.764 -15.088,-16.727 -23.854,-23.762 4.847,-6.187 9.793,-12.313 14.647,-18.501 z"
   fill="#2a3e51" />
			<path
   id="path50"
   d="m 2734.589,1186.795 c 5.773,-11.603 12.646,-22.645 20.655,-32.842 6.188,4.874 12.349,9.792 18.51,14.702 -6.909,8.835 -12.988,18.338 -17.791,28.481 -7.159,-3.37 -14.358,-6.693 -21.374,-10.341 z"
   fill="#2a3e51" />
			<path
   id="path52"
   d="m 2891.771,1157.295 c 12.889,9.016 25.211,18.853 36.785,29.526 13.089,12.251 25.492,25.51 34.842,40.904 6.377,10.629 11.377,22.582 11.412,35.165 0.999,11.728 -1.358,24.105 -8.403,33.733 -9.054,12.791 -25.518,19.61 -40.976,17.501 -12.583,-1.414 -24.023,-8.854 -31.121,-19.231 4.089,14.323 9.206,28.554 17.33,41.137 2.892,4.423 6.188,8.639 10.206,12.097 -20.141,0 -40.29,-0.027 -60.431,0.01 10.278,-8.755 16.366,-21.276 21.293,-33.589 2.559,-6.577 4.63,-13.332 6.449,-20.142 -7.602,11.241 -20.33,19.115 -34.021,19.664 -12.025,0.847 -24.339,-3.45 -33.077,-11.782 -8.835,-8.224 -13.455,-20.249 -13.807,-32.193 -0.027,-8.377 0.423,-16.917 3.252,-24.888 5.341,-15.601 15.357,-29.076 26.194,-41.309 16.079,-17.617 34.427,-33.091 54.073,-46.603 z"
   fill="#2a3e51" />
			<path
   id="path54"
   d="m 3026.173,1196.406 c 7.15,-3.278 14.068,-7.071 21.302,-10.142 5.495,11.719 9.873,23.942 12.863,36.535 -7.629,1.918 -15.34,3.478 -22.969,5.414 -2.63,-10.964 -6.468,-21.592 -11.196,-31.807 z"
   fill="#2a3e51" />
			<path
   id="path56"
   d="m 2717.618,1262.278 c -0.063,-12.989 1.495,-25.942 4.17,-38.642 7.711,1.603 15.349,3.53 23.069,5.089 -2.351,11.025 -3.666,22.285 -3.675,33.562 -7.854,-0.027 -15.709,-0.018 -23.564,-0.01 z"
   fill="#2a3e51" />
			<path
   id="path58"
   d="m 3041.17,1261.387 c 7.846,0.072 15.7,0.01 23.554,0.026 0.063,13.152 -1.504,26.266 -4.232,39.121 -7.738,-1.559 -15.385,-3.514 -23.105,-5.144 2.504,-11.152 3.728,-22.582 3.783,-34.003 z"
   fill="#2a3e51" />
			<path
   id="path60"
   d="m 2721.952,1300.893 c 7.583,-1.981 15.312,-3.449 22.905,-5.404 2.748,10.917 6.395,21.601 11.233,31.77 -7.072,3.441 -14.152,6.863 -21.231,10.269 -5.63,-11.693 -9.899,-24.015 -12.907,-36.635 z"
   fill="#2a3e51" />
			<path
   id="path62"
   d="m 3026.298,1326.962 c 7.125,3.44 14.259,6.845 21.357,10.332 -5.783,11.628 -12.691,22.69 -20.735,32.886 -6.207,-4.847 -12.287,-9.837 -18.484,-14.683 6.89,-8.881 13.035,-18.366 17.862,-28.535 z"
   fill="#2a3e51" />
			<path
   id="path64"
   d="m 2755.577,1370.305 c 6.143,-4.926 12.304,-9.835 18.446,-14.771 7.018,8.782 15.043,16.763 23.825,23.788 -4.918,6.17 -9.863,12.323 -14.736,18.529 -10.097,-8.206 -19.411,-17.385 -27.535,-27.546 z"
   fill="#2a3e51" />
			<path
   id="path66"
   d="m 2956.282,1397.067 c 10.116,-4.891 19.664,-10.953 28.474,-17.934 4.81,6.241 9.936,12.251 14.664,18.556 -10.17,8.042 -21.223,14.917 -32.806,20.707 -3.485,-7.088 -6.926,-14.194 -10.332,-21.329 z"
   fill="#2a3e51" />
			<path
   id="path68"
   d="m 2826.214,1397.139 c 10.105,4.917 20.824,8.494 31.734,11.144 -1.784,7.654 -3.451,15.337 -5.251,22.994 -12.646,-2.925 -24.934,-7.276 -36.697,-12.756 3.27,-7.188 6.8,-14.256 10.214,-21.382 z"
   fill="#2a3e51" />
			<path
   id="path70"
   d="m 2891.311,1411.894 c 11.215,0.035 22.438,-1.29 33.382,-3.746 1.648,7.717 3.667,15.365 5.134,23.129 -12.664,2.658 -25.563,4.271 -38.516,4.233 0.01,-7.872 0.018,-15.745 0,-23.616 z"
   fill="#2a3e51" />
			<g
   id="g86">
				<path
   id="path72"
   d="M 2380.752,1522.541 2280.5,1395.298 h -118.76 v -117.217 h 172.742 c 18.507,0 33.667,-5.784 45.499,-17.352 11.82,-11.567 17.737,-27.111 17.737,-46.656 0,-19.532 -5.917,-35.088 -17.737,-46.655 -11.832,-11.567 -26.991,-17.352 -45.499,-17.352 h -211.3 v 372.474 h -134.183 v -501.259 h 345.483 c 28.786,0 55.259,4.506 79.43,13.495 24.159,9.001 45.113,21.726 62.85,38.173 17.737,16.46 31.485,36.245 41.257,59.38 9.76,23.135 14.652,48.583 14.652,76.345 0,38.559 -9.254,72.237 -27.763,101.023 -18.508,28.798 -43.45,50.644 -74.803,65.549 l 126.471,147.293 h -175.824 z"
   fill="#2a3e51" />
				<path
   id="path74"
   d="m 3478.121,1522.541 c -33.426,0 -64.007,-5.266 -91.77,-15.81 -27.762,-10.532 -51.933,-25.316 -72.489,-44.342 -20.569,-19.014 -36.51,-41.764 -47.813,-68.247 -11.314,-26.474 -16.966,-55.645 -16.966,-87.528 v -285.332 h 135.726 v 275.307 c 0,29.304 8.989,52.705 26.991,70.176 17.989,17.483 40.872,26.22 68.634,26.22 h 106.421 c 27.762,0 50.632,-8.736 68.634,-26.22 17.99,-17.472 26.991,-40.872 26.991,-70.176 v -275.307 h 135.725 v 285.332 c 0,31.883 -5.663,61.055 -16.965,87.528 -11.314,26.483 -27.257,49.233 -47.813,68.247 -20.568,19.026 -44.859,33.811 -72.875,44.342 -28.027,10.543 -58.487,15.81 -91.383,15.81 z"
   fill="#2a3e51" />
				<path
   id="path76"
   d="m 3898.405,1522.541 v -501.259 h 135.726 v 371.703 h 305.383 v 129.556 z"
   fill="#2a3e51" />
				<path
   id="path78"
   d="m 4397.341,1522.541 v -501.259 h 481.208 v 128.785 h -346.254 v 242.918 h 347.023 v 129.556 z m 179.682,-198.19 v -107.192 h 296.127 v 107.192 z"
   fill="#2a3e51" />
				<path
   id="path80"
   d="m 5115.288,1522.541 v -372.474 h -184.309 v -128.785 h 503.572 v 128.785 h -184.31 v 372.474 z"
   fill="#2a3e51" />
				<path
   id="path82"
   d="M 5655.867,1522.541 V 1150.067 H 5471.56 v -128.785 h 503.57 v 128.785 h -184.309 v 372.474 z"
   fill="#2a3e51" />
				<path
   id="path84"
   d="m 6032.962,1522.541 v -501.259 h 481.208 v 128.785 h -346.252 v 242.918 h 347.023 v 129.556 z m 179.684,-198.19 v -107.192 h 296.127 v 107.192 z"
   fill="#2a3e51" />
			</g>
		</g>
	</g>
	<g
   id="g178">
		<g
   id="g124">
			<path
   id="path92"
   d="m 2213.153,4552.713 h -82.721 v 147.369 h -41.708 v -147.369 h -82.374 v -31.977 h 206.803 z"
   fill="#ffffff" />
			<path
   id="path94"
   d="m 2471.4,4700.082 h -46.921 l -21.55,-39.275 h -113.654 l -20.854,39.275 h -41.708 l 101.49,-179.346 h 40.318 z m -85.848,-71.6 -38.58,-72.988 -39.97,72.988 z"
   fill="#ffffff" />
			<path
   id="path96"
   d="m 2745.283,4664.977 c 0,23.408 -17.612,35.105 -52.831,35.105 H 2549.95 v -179.346 h 153.625 c 26.876,0 40.317,11.59 40.317,34.758 v 21.896 c 0,17.611 -10.313,27.691 -30.934,30.238 21.55,2.781 32.324,14.25 32.324,34.408 v 22.941 z m -39.97,-85.153 v -17.031 c 0,-8.57 -6.375,-12.861 -19.116,-12.861 h -95.233 v 42.752 h 95.233 c 12.74,0 19.116,-4.286 19.116,-12.86 z m 1.042,71.946 v -13.555 c 0,-6.717 -1.564,-11.063 -4.692,-13.033 -3.128,-1.967 -8.287,-2.955 -15.467,-2.955 h -95.233 v 45.531 h 95.233 c 7.18,0 12.339,-0.982 15.467,-2.955 3.128,-1.965 4.692,-6.311 4.692,-13.033 z"
   fill="#ffffff" />
			<path
   id="path98"
   d="M 3022.987,4700.082 H 2846.77 v -179.346 h 41.708 v 145.631 h 134.509 z"
   fill="#ffffff" />
			<path
   id="path100"
   d="m 3290.266,4700.082 h -185.253 v -179.346 h 183.516 v 30.586 H 3146.72 v 39.971 h 82.721 v 30.586 h -82.721 v 44.488 h 143.545 v 33.715 z"
   fill="#ffffff" />
			<path
   id="path102"
   d="m 3582.914,4657.678 c 0,16.684 -3.247,27.926 -9.731,33.715 -6.49,5.795 -18.193,8.689 -35.104,8.689 h -110.874 c -18.307,0 -30.358,-3.242 -36.147,-9.732 -5.794,-6.484 -8.689,-18.996 -8.689,-37.537 l 36.843,-7.646 v 21.201 h 126.862 v -41.012 h -111.917 c -16.917,0 -28.56,-2.895 -34.931,-8.689 -6.375,-5.789 -9.558,-17.031 -9.558,-33.715 v -19.811 c 0,-16.684 3.183,-27.92 9.558,-33.715 6.371,-5.789 18.014,-8.689 34.931,-8.689 h 101.838 c 17.145,0 28.848,2.955 35.104,8.863 6.256,5.908 9.384,17.324 9.384,34.234 l -36.843,8.689 v -20.506 h -117.478 v 38.58 h 111.917 c 16.911,0 28.614,2.9 35.104,8.689 6.484,5.795 9.731,17.031 9.731,33.715 z"
   fill="#ffffff" />
			<path
   id="path104"
   d="m 3732.018,4700.082 h -41.708 v -179.346 h 41.708 z"
   fill="#ffffff" />
			<path
   id="path106"
   d="m 4062.55,4609.367 c 0,34.756 -13.208,60.361 -39.623,76.813 -15.065,9.27 -39.623,13.902 -73.685,13.902 h -104.618 v -179.346 h 115.392 c 31.048,0 55.378,6.951 72.989,20.855 19.694,15.294 29.545,37.886 29.545,67.776 z m -43.098,-0.695 c 0,-37.305 -19.698,-55.959 -59.087,-55.959 h -74.032 v 113.654 h 53.873 c 25.486,0 44.022,-3.242 55.611,-9.732 15.755,-8.803 23.635,-24.791 23.635,-47.963 z"
   fill="#ffffff" />
			<path
   id="path108"
   d="m 4345.117,4700.082 h -185.252 v -179.346 h 183.514 v 30.586 h -141.806 v 39.971 h 82.72 v 30.586 h -82.72 v 44.488 h 143.544 z"
   fill="#ffffff" />
			<path
   id="path110"
   d="m 4764.628,4552.713 h -82.723 v 147.369 h -41.708 v -147.369 h -82.374 v -31.977 h 206.805 z"
   fill="#ffffff" />
			<path
   id="path112"
   d="m 5049.285,4700.082 h -59.783 l -72.292,-67.777 h -39.623 v 67.777 h -41.013 v -179.346 h 153.624 c 26.876,0 40.315,11.59 40.315,34.758 v 42.055 c 0,17.379 -6.948,28.152 -20.852,32.324 -5.333,1.625 -19.697,2.432 -43.099,2.432 z m -59.087,-112.611 v -21.551 c 0,-6.023 -1.737,-9.959 -5.216,-11.816 -2.55,-1.619 -7.069,-2.434 -13.552,-2.434 h -93.844 v 50.051 h 93.844 c 6.482,0 11.002,-0.809 13.552,-2.434 3.479,-1.851 5.216,-5.789 5.216,-11.816 z"
   fill="#ffffff" />
			<path
   id="path114"
   d="m 5333.596,4700.082 h -46.923 l -21.549,-39.275 h -113.655 l -20.854,39.275 h -41.708 l 101.49,-179.346 h 40.317 z m -85.851,-71.6 -38.579,-72.988 -39.97,72.988 z"
   fill="#ffffff" />
			<path
   id="path116"
   d="m 5597.747,4657.678 c 0,16.684 -3.189,27.926 -9.56,33.715 -6.375,5.795 -18.02,8.689 -34.931,8.689 h -107.052 c -16.916,0 -28.56,-2.895 -34.931,-8.689 -6.376,-5.789 -9.558,-17.031 -9.558,-33.715 v -94.537 c 0,-16.684 3.182,-27.92 9.558,-33.715 6.371,-5.789 18.015,-8.689 34.931,-8.689 h 107.052 c 21.315,0 34.523,4.986 39.623,14.945 3.242,5.795 4.867,20.627 4.867,44.488 l -41.709,6.604 v -34.061 h -112.611 v 113.654 h 112.611 v -38.58 l 41.709,8.689 v 21.202 z"
   fill="#ffffff" />
			<path
   id="path118"
   d="m 5921.33,4700.082 h -67.08 l -107.4,-78.898 v 78.898 h -42.054 v -179.346 h 42.054 v 74.727 l 99.407,-74.727 h 60.477 l -118.871,84.459 z"
   fill="#ffffff" />
			<path
   id="path120"
   d="m 6186.867,4700.082 h -185.252 v -179.346 h 183.516 v 30.586 h -141.809 v 39.971 h 82.722 v 30.586 h -82.722 v 44.488 h 143.545 z"
   fill="#ffffff" />
			<path
   id="path122"
   d="m 6497.592,4700.082 h -59.782 l -72.293,-67.777 h -39.623 v 67.777 h -41.014 v -179.346 h 153.624 c 26.877,0 40.316,11.59 40.316,34.758 v 42.055 c 0,17.379 -6.948,28.152 -20.852,32.324 -5.334,1.625 -19.697,2.432 -43.1,2.432 z m -59.088,-112.611 v -21.551 c 0,-6.023 -1.736,-9.959 -5.214,-11.816 -2.552,-1.619 -7.071,-2.434 -13.554,-2.434 h -93.843 v 50.051 h 93.843 c 6.482,0 11.002,-0.809 13.554,-2.434 3.478,-1.851 5.214,-5.789 5.214,-11.816 z"
   fill="#ffffff" />
		</g>
		<g
   id="g176">
			<g
   id="g128">
				<path
   id="path126"
   d="m 2869.18,3852.313 c 40.93,-2.963 82.5,2.459 121.106,16.475 63.764,22.844 118.845,68.691 153.155,127.061 18.944,31.986 31.617,67.646 37.184,104.389 5.288,35.246 4.225,71.457 -3.351,106.279 -11.403,52.883 -38.029,102.309 -75.69,141.113 -36.48,37.865 -83.319,65.684 -134.113,79.328 -65.323,17.738 -136.816,11.953 -198.265,-16.537 -59.045,-27.014 -108.469,-74.285 -138.23,-131.979 -17.482,-33.777 -28.301,-71.016 -31.472,-108.92 -4.404,-50.387 4.459,-101.92 25.815,-147.795 28.734,-62.512 80.266,-114.145 142.707,-143.031 31.75,-14.837 66.222,-23.727 101.154,-26.383 z m -143.391,85.05 c 10.629,13.438 21.439,26.725 32.067,40.164 24.888,-19.908 54.234,-34.301 85.337,-41.318 -3.611,-16.771 -7.665,-33.463 -11.376,-50.217 -38.625,8.846 -75.087,26.653 -106.028,51.371 z m 212.659,-1.308 c 31.139,6.91 60.529,21.232 85.499,41.039 10.647,-13.402 21.248,-26.842 32.004,-40.174 -31.004,-24.689 -67.575,-42.406 -106.271,-51.072 -3.657,16.754 -7.602,33.445 -11.232,50.207 z m -67.556,23.465 c -21.682,2.389 -42.949,8.594 -62.45,18.377 -36.355,18.061 -66.476,48.369 -84.249,84.877 -18.221,36.842 -23.455,79.861 -14.853,120.025 6.818,32.473 22.662,62.963 45.19,87.303 22.682,24.715 52.182,43.137 84.392,52.549 37.031,10.926 77.475,9.873 113.873,-3.027 33.771,-11.854 63.881,-33.768 85.672,-62.152 21.681,-28.059 35.11,-62.457 37.903,-97.83 3.27,-37.805 -5.558,-76.527 -24.853,-109.207 -18.177,-31.021 -45.506,-56.594 -77.717,-72.584 -31.587,-15.845 -67.798,-22.214 -102.908,-18.331 z m 212.531,91.796 c 14.063,28.645 21.259,60.539 21.367,92.426 17.132,-0.01 34.265,0 51.406,-0.01 -0.082,-39.623 -9.233,-79.129 -26.428,-114.826 -15.511,7.35 -30.896,14.924 -46.345,22.41 z m -457.276,93.282 c 17.104,-0.125 34.219,-0.035 51.334,-0.053 0.018,-31.969 7.26,-63.838 21.015,-92.68 -15.386,-7.467 -30.843,-14.771 -46.2,-22.283 -17.232,35.732 -26.185,75.356 -26.149,115.016 z m 26.392,114.91 c 17.348,35.598 42.642,67.313 73.646,91.955 10.593,-13.445 21.338,-26.777 31.986,-40.18 -24.97,-19.906 -45.434,-45.416 -59.396,-74.141 -15.403,7.467 -30.815,14.917 -46.236,22.366 z m 371.831,51.594 c 10.594,13.467 21.321,26.836 32.076,40.193 30.887,-24.727 56.082,-56.389 73.475,-91.904 -15.277,-7.693 -30.852,-14.791 -46.137,-22.457 -14.159,28.619 -34.381,54.289 -59.414,74.168 z m -192.022,91.5 c 38.588,9.041 79.177,8.711 117.827,0.135 -3.765,-16.764 -7.512,-33.525 -11.484,-50.242 -31.084,7.188 -63.782,7.213 -94.867,0.045 -3.965,16.651 -7.513,33.405 -11.476,50.062 z"
   fill="#ffffff" />
			</g>
			<path
   id="path130"
   d="m 2852.083,3975.238 c 12.628,-3.107 25.672,-4.359 38.66,-4.549 0.054,7.891 0.09,15.791 0.063,23.682 -11.206,-0.047 -22.42,1.279 -33.346,3.801 -1.872,-7.631 -3.432,-15.33 -5.377,-22.934 z"
   fill="#ffffff" />
			<path
   id="path132"
   d="m 2929.395,3974.924 c 12.656,2.891 24.96,7.225 36.724,12.719 -3.288,7.16 -6.882,14.168 -10.152,21.34 -10.188,-4.813 -20.888,-8.486 -31.859,-11.072 1.873,-7.63 3.387,-15.358 5.287,-22.987 z"
   fill="#ffffff" />
			<path
   id="path134"
   d="m 2782.644,4008.801 c 10.171,-8.098 21.223,-15.07 32.896,-20.816 3.387,7.115 6.837,14.195 10.332,21.268 -10.107,4.943 -19.673,10.98 -28.455,18.006 -4.909,-6.171 -9.864,-12.296 -14.773,-18.458 z"
   fill="#ffffff" />
			<path
   id="path136"
   d="m 2998.978,4008.277 c 10.197,8.063 19.403,17.33 27.618,27.4 -6.107,5 -12.323,9.855 -18.411,14.863 -7.045,-8.764 -15.088,-16.727 -23.854,-23.762 4.847,-6.186 9.793,-12.311 14.647,-18.501 z"
   fill="#ffffff" />
			<path
   id="path138"
   d="m 2734.589,4069.115 c 5.773,-11.602 12.646,-22.645 20.655,-32.842 6.188,4.873 12.349,9.791 18.51,14.701 -6.909,8.836 -12.988,18.338 -17.791,28.48 -7.159,-3.368 -14.358,-6.69 -21.374,-10.339 z"
   fill="#ffffff" />
			<path
   id="path140"
   d="m 2891.771,4039.615 c 12.889,9.016 25.211,18.854 36.785,29.527 13.089,12.25 25.492,25.51 34.842,40.902 6.377,10.631 11.377,22.582 11.412,35.166 0.999,11.727 -1.358,24.105 -8.403,33.732 -9.054,12.791 -25.518,19.611 -40.976,17.502 -12.583,-1.414 -24.023,-8.854 -31.121,-19.23 4.089,14.322 9.206,28.553 17.33,41.137 2.892,4.424 6.188,8.639 10.206,12.098 -20.141,0 -40.29,-0.027 -60.431,0.01 10.278,-8.756 16.366,-21.277 21.293,-33.59 2.559,-6.576 4.63,-13.332 6.449,-20.141 -7.602,11.24 -20.33,19.115 -34.021,19.664 -12.025,0.846 -24.339,-3.451 -33.077,-11.783 -8.835,-8.223 -13.455,-20.248 -13.807,-32.193 -0.027,-8.377 0.423,-16.916 3.252,-24.887 5.341,-15.602 15.357,-29.076 26.194,-41.309 16.079,-17.618 34.427,-33.093 54.073,-46.605 z"
   fill="#ffffff" />
			<path
   id="path142"
   d="m 3026.173,4078.727 c 7.15,-3.279 14.068,-7.072 21.302,-10.143 5.495,11.719 9.873,23.941 12.863,36.535 -7.629,1.918 -15.34,3.477 -22.969,5.414 -2.63,-10.965 -6.468,-21.592 -11.196,-31.806 z"
   fill="#ffffff" />
			<path
   id="path144"
   d="m 2717.618,4144.598 c -0.063,-12.988 1.495,-25.941 4.17,-38.641 7.711,1.602 15.349,3.529 23.069,5.088 -2.351,11.025 -3.666,22.285 -3.675,33.563 -7.854,-0.028 -15.709,-0.018 -23.564,-0.01 z"
   fill="#ffffff" />
			<path
   id="path146"
   d="m 3041.17,4143.707 c 7.846,0.072 15.7,0.01 23.554,0.025 0.063,13.152 -1.504,26.268 -4.232,39.121 -7.738,-1.559 -15.385,-3.514 -23.105,-5.143 2.504,-11.151 3.728,-22.581 3.783,-34.003 z"
   fill="#ffffff" />
			<path
   id="path148"
   d="m 2721.952,4183.213 c 7.583,-1.98 15.312,-3.449 22.905,-5.404 2.748,10.918 6.395,21.602 11.233,31.77 -7.072,3.441 -14.152,6.863 -21.231,10.27 -5.63,-11.693 -9.899,-24.015 -12.907,-36.636 z"
   fill="#ffffff" />
			<path
   id="path150"
   d="m 3026.298,4209.281 c 7.125,3.441 14.259,6.846 21.357,10.332 -5.783,11.629 -12.691,22.689 -20.735,32.887 -6.207,-4.848 -12.287,-9.838 -18.484,-14.684 6.89,-8.88 13.035,-18.365 17.862,-28.535 z"
   fill="#ffffff" />
			<path
   id="path152"
   d="m 2755.577,4252.625 c 6.143,-4.926 12.304,-9.836 18.446,-14.771 7.018,8.783 15.043,16.764 23.825,23.789 -4.918,6.17 -9.863,12.322 -14.736,18.529 -10.097,-8.207 -19.411,-17.385 -27.535,-27.547 z"
   fill="#ffffff" />
			<path
   id="path154"
   d="m 2956.282,4279.387 c 10.116,-4.891 19.664,-10.951 28.474,-17.934 4.81,6.242 9.936,12.252 14.664,18.557 -10.17,8.041 -21.223,14.916 -32.806,20.707 -3.485,-7.088 -6.926,-14.196 -10.332,-21.33 z"
   fill="#ffffff" />
			<path
   id="path156"
   d="m 2826.214,4279.459 c 10.105,4.918 20.824,8.494 31.734,11.145 -1.784,7.654 -3.451,15.338 -5.251,22.994 -12.646,-2.926 -24.934,-7.277 -36.697,-12.756 3.27,-7.188 6.8,-14.256 10.214,-21.383 z"
   fill="#ffffff" />
			<path
   id="path158"
   d="m 2891.311,4294.213 c 11.215,0.035 22.438,-1.289 33.382,-3.746 1.648,7.719 3.667,15.365 5.134,23.131 -12.664,2.658 -25.563,4.271 -38.516,4.232 0.01,-7.873 0.018,-15.744 0,-23.617 z"
   fill="#ffffff" />
			<g
   id="g174">
				<path
   id="path160"
   d="M 2380.752,4404.861 2280.5,4277.619 H 2161.74 V 4160.4 h 172.742 c 18.507,0 33.667,-5.783 45.499,-17.352 11.82,-11.566 17.737,-27.111 17.737,-46.654 0,-19.533 -5.917,-35.088 -17.737,-46.656 -11.832,-11.566 -26.991,-17.352 -45.499,-17.352 h -211.3 v 372.475 h -134.183 v -501.26 h 345.483 c 28.786,0 55.259,4.508 79.43,13.496 24.159,9.002 45.113,21.727 62.85,38.172 17.737,16.461 31.485,36.246 41.257,59.381 9.76,23.135 14.652,48.584 14.652,76.346 0,38.559 -9.254,72.236 -27.763,101.023 -18.508,28.797 -43.45,50.643 -74.803,65.549 l 126.471,147.293 z"
   fill="#ffffff" />
				<path
   id="path162"
   d="m 3478.121,4404.861 c -33.426,0 -64.007,-5.266 -91.77,-15.811 -27.762,-10.531 -51.933,-25.314 -72.489,-44.342 -20.569,-19.014 -36.51,-41.764 -47.813,-68.246 -11.314,-26.475 -16.966,-55.646 -16.966,-87.529 v -285.332 h 135.726 v 275.307 c 0,29.305 8.989,52.705 26.991,70.178 17.989,17.482 40.872,26.219 68.634,26.219 h 106.421 c 27.762,0 50.632,-8.736 68.634,-26.219 17.99,-17.473 26.991,-40.873 26.991,-70.178 v -275.307 h 135.725 v 285.332 c 0,31.883 -5.663,61.055 -16.965,87.529 -11.314,26.482 -27.257,49.232 -47.813,68.246 -20.568,19.027 -44.859,33.811 -72.875,44.342 -28.027,10.545 -58.487,15.811 -91.383,15.811 z"
   fill="#ffffff" />
				<path
   id="path164"
   d="m 3898.405,4404.861 v -501.26 h 135.726 v 371.703 h 305.383 v 129.557 z"
   fill="#ffffff" />
				<path
   id="path166"
   d="m 4397.341,4404.861 v -501.26 h 481.208 v 128.785 h -346.254 v 242.918 h 347.023 v 129.557 z m 179.682,-198.191 v -107.191 h 296.127 v 107.191 z"
   fill="#ffffff" />
				<path
   id="path168"
   d="m 5115.288,4404.861 v -372.475 h -184.309 v -128.785 h 503.572 v 128.785 h -184.31 v 372.475 z"
   fill="#ffffff" />
				<path
   id="path170"
   d="M 5655.867,4404.861 V 4032.386 H 5471.56 v -128.785 h 503.57 v 128.785 h -184.309 v 372.475 z"
   fill="#ffffff" />
				<path
   id="path172"
   d="m 6032.962,4404.861 v -501.26 h 481.208 v 128.785 h -346.252 v 242.918 h 347.023 v 129.557 z m 179.684,-198.191 v -107.191 h 296.127 v 107.191 z"
   fill="#ffffff" />
			</g>
		</g>
	</g>
</g></pattern><clipPath
     id="clipPath2801"
     clipPathUnits="userSpaceOnUse"><rect
       y="767.57605"
       x="1467.8209"
       height="1912.207"
       width="5399.9648"
       id="rect2803"
       style="opacity:0.5;fill:#000000;stroke-width:3.7;stroke-miterlimit:1.4" /></clipPath><clipPath
     id="clipPath2805"
     clipPathUnits="userSpaceOnUse"><rect
       y="767.57605"
       x="1467.8209"
       height="1912.207"
       width="5399.9648"
       id="rect2807"
       style="opacity:0.5;fill:#000000;stroke-width:3.7;stroke-miterlimit:1.4" /></clipPath><clipPath
     clipPathUnits="userSpaceOnUse"
     id="clipPath1893"><rect
       style="fill:#000080;stroke-width:2.21547;stroke-miterlimit:1.4"
       id="rect1895"
       width="5484.9209"
       height="1054.7925"
       x="1362.5529"
       y="713.59369" /></clipPath></defs><sodipodi:namedview
   inkscape:document-rotation="0"
   pagecolor="#ffffff"
   bordercolor="#666666"
   borderopacity="1"
   objecttolerance="10"
   gridtolerance="10"
   guidetolerance="10"
   inkscape:pageopacity="0"
   inkscape:pageshadow="2"
   inkscape:window-width="1920"
   inkscape:window-height="1017"
   id="namedview183"
   showgrid="false"
   inkscape:zoom="0.10501913"
   inkscape:cx="4231.1406"
   inkscape:cy="2799.082"
   inkscape:window-x="1912"
   inkscape:window-y="-8"
   inkscape:window-maximized="1"
   inkscape:current-layer="Layer_1" />
<rect
   transform="matrix(1.6700763,0,0,1.6700763,-2427.9204,198.46696)"
   clip-path="url(#clipPath1893)"
   id="rect2789"
   y="754.10986"
   x="1124.4315"
   height="4127.7666"
   width="5898.2163"
   style="fill:url(#pattern2791);stroke:none" /><rect
   clip-path="url(#clipPath2801)"
   y="148.12872"
   x="834.90729"
   height="2497.9888"
   width="6645.5928"
   id="rect919"
   style="fill:none;stroke-width:3.7;stroke-miterlimit:1.4"
   transform="translate(19.044151,695.11145)" />

<g
   style="font-style:normal;font-weight:normal;font-size:40px;line-height:1.25;font-family:sans-serif;white-space:pre;shape-inside:url(#rect1901);fill:#da2333;fill-opacity:1;stroke:none"
   id="text1899"
   transform="matrix(20.272381,0,0,11.399804,-12348.886,-17987.566)"
   aria-label="TREND TRACKER"><path
     id="path1920"
     style="font-style:normal;font-variant:normal;font-weight:bold;font-stretch:normal;font-size:40px;font-family:Verdana;-inkscape-font-specification:'Verdana, Bold';font-variant-ligatures:normal;font-variant-caps:normal;font-variant-numeric:normal;font-variant-east-asian:normal;fill:#da2333;fill-opacity:1"
     d="m 664.44336,1860.3194 h -9.08203 v 23.457 h -7.5 v -23.457 h -9.08203 v -5.625 h 25.66406 z" /><path
     id="path1922"
     style="font-style:normal;font-variant:normal;font-weight:bold;font-stretch:normal;font-size:40px;font-family:Verdana;-inkscape-font-specification:'Verdana, Bold';font-variant-ligatures:normal;font-variant-caps:normal;font-variant-numeric:normal;font-variant-east-asian:normal;fill:#da2333;fill-opacity:1"
     d="m 685.26367,1863.6006 q 0,-1.0937 -0.44922,-1.875 -0.44922,-0.7812 -1.54297,-1.2304 -0.76171,-0.3125 -1.77734,-0.3711 -1.01562,-0.078 -2.36328,-0.078 h -2.71484 v 7.8321 h 2.30468 q 1.79688,0 3.00782,-0.1758 1.21093,-0.1758 2.03125,-0.8008 0.78125,-0.6055 1.13281,-1.3281 0.37109,-0.7422 0.37109,-1.9727 z m 11.69922,20.1758 h -9.16016 l -7.92968,-10.664 h -3.45703 v 10.664 h -7.46094 v -29.082 h 12.57812 q 2.57813,0 4.4336,0.293 1.85547,0.2929 3.47656,1.2695 1.64062,0.9765 2.59766,2.539 0.97656,1.543 0.97656,3.8868 0,3.2226 -1.50391,5.2539 -1.48437,2.0312 -4.25781,3.3789 z" /><path
     id="path1924"
     style="font-style:normal;font-variant:normal;font-weight:bold;font-stretch:normal;font-size:40px;font-family:Verdana;-inkscape-font-specification:'Verdana, Bold';font-variant-ligatures:normal;font-variant-caps:normal;font-variant-numeric:normal;font-variant-east-asian:normal;fill:#da2333;fill-opacity:1"
     d="M 721.31836,1883.7764 H 700.2832 v -29.082 h 21.03516 v 5.625 h -13.57422 v 5.0195 h 12.59766 v 5.625 h -12.59766 v 7.1875 h 13.57422 z" /><path
     id="path1926"
     style="font-style:normal;font-variant:normal;font-weight:bold;font-stretch:normal;font-size:40px;font-family:Verdana;-inkscape-font-specification:'Verdana, Bold';font-variant-ligatures:normal;font-variant-caps:normal;font-variant-numeric:normal;font-variant-east-asian:normal;fill:#da2333;fill-opacity:1"
     d="m 754.07227,1883.7764 h -7.22657 l -12.34375,-19.9609 v 19.9609 h -6.875 v -29.082 h 8.96485 l 10.60547,16.6601 v -16.6601 h 6.875 z" /><path
     id="path1928"
     style="font-style:normal;font-variant:normal;font-weight:bold;font-stretch:normal;font-size:40px;font-family:Verdana;-inkscape-font-specification:'Verdana, Bold';font-variant-ligatures:normal;font-variant-caps:normal;font-variant-numeric:normal;font-variant-east-asian:normal;fill:#da2333;fill-opacity:1"
     d="m 789.01367,1869.2647 q 0,4.0625 -1.85547,7.2852 -1.85547,3.2031 -4.6875,4.9218 -2.1289,1.2891 -4.66797,1.7969 -2.53906,0.5078 -6.01562,0.5078 H 761.5332 v -29.082 h 10.54688 q 3.55469,0 6.13281,0.6055 2.57813,0.5859 4.33594,1.6796 3.00781,1.836 4.72656,4.961 1.73828,3.1054 1.73828,7.3242 z m -7.7539,-0.059 q 0,-2.8711 -1.05469,-4.9023 -1.03516,-2.0508 -3.30078,-3.2032 -1.15235,-0.5664 -2.36328,-0.7617 -1.19141,-0.2148 -3.61329,-0.2148 h -1.89453 v 18.2031 h 1.89453 q 2.67579,0 3.92579,-0.2344 1.25,-0.2539 2.4414,-0.8984 2.05078,-1.1719 3.00781,-3.125 0.95704,-1.9727 0.95704,-4.8633 z" /><path
     id="path1930"
     style="font-style:normal;font-variant:normal;font-weight:bold;font-stretch:normal;font-size:40px;font-family:Verdana;-inkscape-font-specification:'Verdana, Bold';font-variant-ligatures:normal;font-variant-caps:normal;font-variant-numeric:normal;font-variant-east-asian:normal;fill:#da2333;fill-opacity:1"
     d="m 831.16211,1860.3194 h -9.08203 v 23.457 h -7.5 v -23.457 h -9.08203 v -5.625 h 25.66406 z" /><path
     id="path1932"
     style="font-style:normal;font-variant:normal;font-weight:bold;font-stretch:normal;font-size:40px;font-family:Verdana;-inkscape-font-specification:'Verdana, Bold';font-variant-ligatures:normal;font-variant-caps:normal;font-variant-numeric:normal;font-variant-east-asian:normal;fill:#da2333;fill-opacity:1"
     d="m 851.98242,1863.6006 q 0,-1.0937 -0.44922,-1.875 -0.44922,-0.7812 -1.54297,-1.2304 -0.76171,-0.3125 -1.77734,-0.3711 -1.01562,-0.078 -2.36328,-0.078 h -2.71484 v 7.8321 h 2.30468 q 1.79688,0 3.00782,-0.1758 1.21093,-0.1758 2.03125,-0.8008 0.78125,-0.6055 1.13281,-1.3281 0.37109,-0.7422 0.37109,-1.9727 z m 11.69922,20.1758 h -9.16016 l -7.92968,-10.664 h -3.45703 v 10.664 h -7.46094 v -29.082 h 12.57812 q 2.57813,0 4.4336,0.293 1.85547,0.2929 3.47656,1.2695 1.64062,0.9765 2.59766,2.539 0.97656,1.543 0.97656,3.8868 0,3.2226 -1.50391,5.2539 -1.48437,2.0312 -4.25781,3.3789 z" /><path
     id="path1934"
     style="font-style:normal;font-variant:normal;font-weight:bold;font-stretch:normal;font-size:40px;font-family:Verdana;-inkscape-font-specification:'Verdana, Bold';font-variant-ligatures:normal;font-variant-caps:normal;font-variant-numeric:normal;font-variant-east-asian:normal;fill:#da2333;fill-opacity:1"
     d="m 893.87695,1883.7764 h -7.7539 l -2.01172,-5.8789 h -10.78125 l -2.01172,5.8789 h -7.55859 l 10.74218,-29.082 h 8.63282 z m -11.58203,-11.2109 -3.57422,-10.4297 -3.57422,10.4297 z" /><path
     id="path1936"
     style="font-style:normal;font-variant:normal;font-weight:bold;font-stretch:normal;font-size:40px;font-family:Verdana;-inkscape-font-specification:'Verdana, Bold';font-variant-ligatures:normal;font-variant-caps:normal;font-variant-numeric:normal;font-variant-east-asian:normal;fill:#da2333;fill-opacity:1"
     d="m 911.24023,1884.3428 q -3.24218,0 -5.99609,-0.957 -2.73437,-0.957 -4.70703,-2.8516 -1.97266,-1.8945 -3.06641,-4.7265 -1.07422,-2.8321 -1.07422,-6.543 0,-3.457 1.03516,-6.2695 1.03516,-2.8125 3.00781,-4.8243 1.89453,-1.9335 4.6875,-2.9882 2.8125,-1.0547 6.13282,-1.0547 1.83593,0 3.30078,0.2148 1.48437,0.1953 2.73437,0.5274 1.3086,0.3711 2.36328,0.8398 1.07422,0.4492 1.875,0.8399 v 7.0507 h -0.85937 q -0.54688,-0.4687 -1.38672,-1.1132 -0.82031,-0.6446 -1.875,-1.2696 -1.07422,-0.625 -2.32422,-1.0547 -1.25,-0.4297 -2.67578,-0.4297 -1.58203,0 -3.00781,0.5079 -1.42578,0.4882 -2.63672,1.6406 -1.15235,1.1133 -1.875,2.9492 -0.70313,1.8359 -0.70313,4.4531 0,2.7344 0.76172,4.5703 0.78125,1.836 1.95313,2.8907 1.1914,1.0742 2.65625,1.5429 1.46484,0.4493 2.89062,0.4493 1.36719,0 2.69531,-0.4102 1.34766,-0.4102 2.48047,-1.1133 0.95703,-0.5664 1.77735,-1.2109 0.82031,-0.6446 1.34765,-1.1133 h 0.78125 v 6.9531 q -1.09375,0.4883 -2.08984,0.918 -0.99609,0.4297 -2.08984,0.7422 -1.42579,0.4101 -2.67579,0.625 -1.25,0.2148 -3.4375,0.2148 z" /><path
     id="path1938"
     style="font-style:normal;font-variant:normal;font-weight:bold;font-stretch:normal;font-size:40px;font-family:Verdana;-inkscape-font-specification:'Verdana, Bold';font-variant-ligatures:normal;font-variant-caps:normal;font-variant-numeric:normal;font-variant-east-asian:normal;fill:#da2333;fill-opacity:1"
     d="m 954.22852,1883.7764 h -9.19922 l -8.69141,-11.6406 -1.75781,2.1289 v 9.5117 h -7.5 v -29.082 h 7.5 v 13.164 l 10.39062,-13.164 h 8.69141 l -11.36719,13.457 z" /><path
     id="path1940"
     style="font-style:normal;font-variant:normal;font-weight:bold;font-stretch:normal;font-size:40px;font-family:Verdana;-inkscape-font-specification:'Verdana, Bold';font-variant-ligatures:normal;font-variant-caps:normal;font-variant-numeric:normal;font-variant-east-asian:normal;fill:#da2333;fill-opacity:1"
     d="m 978.97461,1883.7764 h -21.03516 v -29.082 h 21.03516 v 5.625 h -13.57422 v 5.0195 h 12.59766 v 5.625 h -12.59766 v 7.1875 h 13.57422 z" /><path
     id="path1942"
     style="font-style:normal;font-variant:normal;font-weight:bold;font-stretch:normal;font-size:40px;font-family:Verdana;-inkscape-font-specification:'Verdana, Bold';font-variant-ligatures:normal;font-variant-caps:normal;font-variant-numeric:normal;font-variant-east-asian:normal;fill:#da2333;fill-opacity:1"
     d="m 1001.5918,1863.6006 q 0,-1.0937 -0.4492,-1.875 -0.4492,-0.7812 -1.54299,-1.2304 -0.76172,-0.3125 -1.77734,-0.3711 -1.01563,-0.078 -2.36329,-0.078 h -2.71484 v 7.8321 h 2.30469 q 1.79687,0 3.00781,-0.1758 1.21094,-0.1758 2.03126,-0.8008 0.7812,-0.6055 1.1328,-1.3281 0.3711,-0.7422 0.3711,-1.9727 z m 11.6992,20.1758 h -9.1601 l -7.92973,-10.664 h -3.45703 v 10.664 h -7.46094 v -29.082 h 12.57813 q 2.57817,0 4.43357,0.293 1.8555,0.2929 3.4766,1.2695 1.6406,0.9765 2.5976,2.539 0.9766,1.543 0.9766,3.8868 0,3.2226 -1.5039,5.2539 -1.4844,2.0312 -4.2578,3.3789 z" /></g></svg>
