<?xml version="1.0" encoding="UTF-8" standalone="no"?>
<svg
   xmlns:dc="http://purl.org/dc/elements/1.1/"
   xmlns:cc="http://creativecommons.org/ns#"
   xmlns:rdf="http://www.w3.org/1999/02/22-rdf-syntax-ns#"
   xmlns:svg="http://www.w3.org/2000/svg"
   xmlns="http://www.w3.org/2000/svg"
   xmlns:sodipodi="http://sodipodi.sourceforge.net/DTD/sodipodi-0.dtd"
   xmlns:inkscape="http://www.inkscape.org/namespaces/inkscape"
   inkscape:version="1.0 (4035a4fb49, 2020-05-01)"
   sodipodi:docname="flow_icon.svg"
   xml:space="preserve"
   width="32px"
   viewBox="0 0 32 32"
   version="1.1"
   id="svg2"
   height="32px"
   enable-background="new 0 0 32 32"><metadata
     id="metadata15"><rdf:RDF><cc:Work
         rdf:about=""><dc:format>image/svg+xml</dc:format><dc:type
           rdf:resource="http://purl.org/dc/dcmitype/StillImage" /><dc:title></dc:title></cc:Work></rdf:RDF></metadata><defs
     id="defs13" /><sodipodi:namedview
     inkscape:current-layer="svg2"
     inkscape:window-maximized="1"
     inkscape:window-y="-8"
     inkscape:window-x="-8"
     inkscape:cy="16"
     inkscape:cx="16"
     inkscape:zoom="26.3125"
     showgrid="false"
     id="namedview11"
     inkscape:window-height="1017"
     inkscape:window-width="1920"
     inkscape:pageshadow="2"
     inkscape:pageopacity="0"
     guidetolerance="10"
     gridtolerance="10"
     objecttolerance="10"
     borderopacity="1"
     bordercolor="#666666"
     pagecolor="#ffffff" /><g
     id="background"><rect
       id="rect2"
       y="0"
       width="32"
       height="32"
       fill="none" /></g><g
     style="fill:#2c3e50;fill-opacity:1"
     id="application"><path
       style="fill:#2c3e50;fill-opacity:1"
       id="path5"
       stroke-width="2"
       stroke="#1B1C20"
       fill="#FFFFFF"
       d="M32,17" /><path
       style="fill:#2c3e50;fill-opacity:1"
       id="path7"
       d="M32,14v-2H21.894C23.191,10.73,23.999,8.96,24,7c-0.002-3.866-3.134-7-7-7s-7,3.134-7,7c0,3.732,2.923,6.772,6.604,6.98   L12.585,18H0V20h10.109C8.81,21.27,8,23.04,8,25c0.002,3.865,3.135,6.998,7,7c3.865-0.002,6.998-3.135,7-7   c-0.002-3.731-2.926-6.771-6.606-6.979L19.414,14H32z M12,7c0.004-2.761,2.239-4.996,5-5c2.762,0.004,4.994,2.239,4.998,5H22   c-0.004,2.761-2.238,4.994-5,5C14.239,11.995,12.004,9.762,12,7z M20,25c-0.004,2.762-2.239,4.996-4.999,5   c-2.761-0.004-4.995-2.238-5.001-5c0.006-2.761,2.24-4.995,5.001-5C17.761,20.005,19.996,22.24,20,25z" /></g></svg>
