<?xml version="1.0" encoding="UTF-8" standalone="no"?>
<svg
   xmlns:dc="http://purl.org/dc/elements/1.1/"
   xmlns:cc="http://creativecommons.org/ns#"
   xmlns:rdf="http://www.w3.org/1999/02/22-rdf-syntax-ns#"
   xmlns:svg="http://www.w3.org/2000/svg"
   xmlns="http://www.w3.org/2000/svg"
   xmlns:sodipodi="http://sodipodi.sourceforge.net/DTD/sodipodi-0.dtd"
   xmlns:inkscape="http://www.inkscape.org/namespaces/inkscape"
   inkscape:version="1.0 (4035a4fb49, 2020-05-01)"
   sodipodi:docname="input_icon.svg"
   xml:space="preserve"
   viewBox="0 0 30 28"
   version="1.1"
   style="enable-background:new 0 0 30 28;"
   id="input-3"><metadata
     id="metadata13"><rdf:RDF><cc:Work
         rdf:about=""><dc:format>image/svg+xml</dc:format><dc:type
           rdf:resource="http://purl.org/dc/dcmitype/StillImage" /><dc:title></dc:title></cc:Work></rdf:RDF></metadata><defs
     id="defs11" /><sodipodi:namedview
     inkscape:current-layer="input-3"
     inkscape:window-maximized="1"
     inkscape:window-y="-8"
     inkscape:window-x="-8"
     inkscape:cy="14"
     inkscape:cx="15"
     inkscape:zoom="30.071429"
     showgrid="false"
     id="namedview9"
     inkscape:window-height="1017"
     inkscape:window-width="1920"
     inkscape:pageshadow="2"
     inkscape:pageopacity="0"
     guidetolerance="10"
     gridtolerance="10"
     objecttolerance="10"
     borderopacity="1"
     bordercolor="#666666"
     pagecolor="#ffffff" /><g
     style="fill:#2c3e50;fill-opacity:1"
     id="g6"><path
       style="fill:#2c3e50;fill-opacity:1"
       id="path2"
       d="M26,26H2V2h3V0H1C0.447,0,0,0.448,0,1v26c0,0.552,0.447,1,1,1h26c0.553,0,1-0.448,1-1V11h-2V26z" /><path
       style="fill:#2c3e50;fill-opacity:1"
       id="path4"
       d="M12,2c-1.299,0-2,1.03-2,2v8.586L5.707,8.293L4.293,9.707l6,6C10.488,15.902,10.744,16,11,16s0.512-0.098,0.707-0.293l6-6   l-1.414-1.414L12,12.586V4h18V2H12z" /></g></svg>
