<?xml version="1.0" encoding="UTF-8" standalone="no"?>
<svg
   xmlns:dc="http://purl.org/dc/elements/1.1/"
   xmlns:cc="http://creativecommons.org/ns#"
   xmlns:rdf="http://www.w3.org/1999/02/22-rdf-syntax-ns#"
   xmlns:svg="http://www.w3.org/2000/svg"
   xmlns="http://www.w3.org/2000/svg"
   xmlns:sodipodi="http://sodipodi.sourceforge.net/DTD/sodipodi-0.dtd"
   xmlns:inkscape="http://www.inkscape.org/namespaces/inkscape"
   inkscape:version="1.0 (4035a4fb49, 2020-05-01)"
   sodipodi:docname="stats_icon.svg"
   id="svg8"
   version="1.1"
   width="28"
   viewBox="0 0 28 28"
   height="28"
   fill="none">
  <metadata
     id="metadata14">
    <rdf:RDF>
      <cc:Work
         rdf:about="">
        <dc:format>image/svg+xml</dc:format>
        <dc:type
           rdf:resource="http://purl.org/dc/dcmitype/StillImage" />
        <dc:title></dc:title>
      </cc:Work>
    </rdf:RDF>
  </metadata>
  <defs
     id="defs12" />
  <sodipodi:namedview
     inkscape:current-layer="svg8"
     inkscape:window-maximized="1"
     inkscape:window-y="-8"
     inkscape:window-x="-8"
     inkscape:cy="14"
     inkscape:cx="14"
     inkscape:zoom="30.071429"
     showgrid="false"
     id="namedview10"
     inkscape:window-height="1017"
     inkscape:window-width="1920"
     inkscape:pageshadow="2"
     inkscape:pageopacity="0"
     guidetolerance="10"
     gridtolerance="10"
     objecttolerance="10"
     borderopacity="1"
     bordercolor="#666666"
     pagecolor="#ffffff" />
  <path
     style="fill:#2c3e50;fill-opacity:1"
     id="path2"
     fill-rule="evenodd"
     fill="black"
     d="M1 20C1 18.8954 1.89543 18 3 18H6C7.10457 18 8 18.8954 8 20V25C8 26.1046 7.10457 27 6 27H3C1.89543 27 1 26.1046 1 25V20ZM6 20.4C6 20.1791 5.82091 20 5.6 20H3.4C3.17909 20 3 20.1791 3 20.4V24.6C3 24.8209 3.17909 25 3.4 25H5.6C5.82091 25 6 24.8209 6 24.6V20.4Z"
     clip-rule="evenodd" />
  <path
     style="fill:#2c3e50;fill-opacity:1"
     id="path4"
     fill-rule="evenodd"
     fill="black"
     d="M10 3C10 1.89543 10.8954 1 12 1H15C16.1046 1 17 1.89543 17 3V25C17 26.1046 16.1046 27 15 27H12C10.8954 27 10 26.1046 10 25V3ZM15 3.4C15 3.17909 14.8209 3 14.6 3L12.4 3C12.1791 3 12 3.17909 12 3.4V24.6C12 24.8209 12.1791 25 12.4 25H14.6C14.8209 25 15 24.8209 15 24.6V3.4Z"
     clip-rule="evenodd" />
  <path
     style="fill:#2c3e50;fill-opacity:1"
     id="path6"
     fill-rule="evenodd"
     fill="black"
     d="M19 11C19 9.89543 19.8954 9 21 9H24C25.1046 9 26 9.89543 26 11V25C26 26.1046 25.1046 27 24 27H21C19.8954 27 19 26.1046 19 25V11ZM24 11.4C24 11.1791 23.8209 11 23.6 11H21.4C21.1791 11 21 11.1791 21 11.4V24.6C21 24.8209 21.1791 25 21.4 25H23.6C23.8209 25 24 24.8209 24 24.6V11.4Z"
     clip-rule="evenodd" />
</svg>
